<svg width="15" height="20" viewBox="0 0 15 20" fill="none" xmlns="http://www.w3.org/2000/svg">
<path fill-rule="evenodd" clip-rule="evenodd" d="M13.9645 15.5078C13.9645 15.7729 13.7495 15.988 13.4843 15.988H9.2276H9.21983H1.51472C1.25046 15.988 1.03629 15.7729 1.03629 15.5078V10.4738C1.03629 6.90973 3.93542 4.00974 7.50039 4.00974C11.0645 4.00974 13.9645 6.90973 13.9645 10.4738V15.5078ZM7.50047 18.4812C6.77418 18.4812 6.18347 17.8905 6.18347 17.1642C6.18347 17.1167 6.18606 17.07 6.19038 17.0234H8.81057C8.81488 17.07 8.81747 17.1167 8.81747 17.1642C8.81747 17.8905 8.2259 18.4812 7.50047 18.4812ZM9.12488 3.1513C9.35805 2.82486 9.49537 2.42674 9.49537 1.99493C9.49537 0.89297 8.60239 0 7.50043 0C6.39847 0 5.5055 0.89297 5.5055 1.99493C5.5055 2.42674 5.64281 2.82486 5.87512 3.1513C2.51828 3.89573 0 6.89504 0 10.4738V15.5078C0 16.3438 0.679659 17.0234 1.51477 17.0234H5.15142C5.14883 17.0701 5.1471 17.1167 5.1471 17.1642C5.1471 18.4622 6.20243 19.5175 7.50043 19.5175C8.79843 19.5175 9.8529 18.4622 9.8529 17.1642C9.8529 17.1167 9.85117 17.0701 9.84858 17.0234H13.4844C14.3203 17.0234 15 16.3438 15 15.5078V10.4738C15 6.89504 12.4826 3.89573 9.12488 3.1513Z" fill="white"/>
</svg>
