<svg width="16" height="16" viewBox="0 0 16 16" fill="none" xmlns="http://www.w3.org/2000/svg">
<path fill-rule="evenodd" clip-rule="evenodd" d="M5.86791 14.5786V12.2785C5.8679 11.6935 6.34484 11.2181 6.93576 11.2142H9.10032C9.69406 11.2142 10.1754 11.6907 10.1754 12.2785V14.5857C10.1752 15.0824 10.5757 15.4884 11.0773 15.5H12.5203C13.9588 15.5 15.125 14.3455 15.125 12.9214V6.37838C15.1173 5.81812 14.8516 5.29201 14.4035 4.94977L9.46829 1.01398C8.6037 0.328675 7.37465 0.328675 6.51006 1.01398L1.59652 4.95692C1.14669 5.29777 0.88054 5.82475 0.875 6.38552V12.9214C0.875 14.3455 2.04116 15.5 3.47968 15.5H4.92272C5.43677 15.5 5.85348 15.0875 5.85348 14.5786" fill="#FFFFFF"/>
</svg>
