<svg width="10" height="13" viewBox="0 0 10 13" fill="none" xmlns="http://www.w3.org/2000/svg">
<path d="M5.00012 0C3.67452 0.00156385 2.40366 0.52885 1.46632 1.46619C0.528977 2.40353 0.00169124 3.67439 0.00012739 4.99999C-0.00146029 6.08328 0.352391 7.13717 1.0074 7.99999C1.0074 7.99999 1.14376 8.17954 1.16604 8.20545L5.00012 12.7273L8.83603 8.20317C8.85603 8.17908 8.99285 7.99999 8.99285 7.99999L8.9933 7.99863C9.64798 7.13618 10.0017 6.08278 10.0001 4.99999C9.99855 3.67439 9.47127 2.40353 8.53393 1.46619C7.59658 0.52885 6.32572 0.00156385 5.00012 0ZM5.00012 6.81817C4.64052 6.81817 4.28899 6.71154 3.99 6.51176C3.691 6.31197 3.45796 6.02801 3.32034 5.69578C3.18273 5.36355 3.14672 4.99798 3.21688 4.64529C3.28703 4.29259 3.4602 3.96862 3.71447 3.71435C3.96875 3.46007 4.29272 3.28691 4.64541 3.21675C4.99811 3.1466 5.36368 3.1826 5.69591 3.32022C6.02814 3.45783 6.3121 3.69087 6.51188 3.98987C6.71167 4.28887 6.8183 4.64039 6.8183 4.99999C6.8177 5.48202 6.62595 5.94413 6.28511 6.28498C5.94426 6.62582 5.48215 6.81757 5.00012 6.81817Z" fill="white"/>
</svg>
