<svg width="20" height="20" viewBox="0 0 20 20" fill="none" xmlns="http://www.w3.org/2000/svg">
<path fill-rule="evenodd" clip-rule="evenodd" d="M18.4289 5.15311L16.9345 6.64752L13.3522 3.06527L14.8466 1.57086C15.4315 0.985928 16.3835 0.985928 16.9684 1.57086L18.4289 3.03131C19.0148 3.61624 19.0148 4.56817 18.4289 5.15311ZM5.41299 18.1688L1.23254 18.767L1.82975 14.5866L12.5521 3.86532L16.1344 7.4485L5.41299 18.1688ZM19.2309 2.23029L17.7694 0.769848C16.743 -0.256616 15.0721 -0.256616 14.0456 0.769848L0.895781 13.9195C0.808984 14.0063 0.754263 14.1186 0.736338 14.2394L0.00610511 19.3537C-0.0203116 19.5302 0.0400694 19.7075 0.166492 19.834C0.273102 19.9406 0.416507 20 0.565573 20C0.592933 20 0.61935 19.9981 0.645766 19.9934L5.76023 19.2632C5.88099 19.2462 5.99326 19.1896 6.08006 19.1037L19.2309 5.95405C20.2564 4.92759 20.2564 3.25676 19.2309 2.23029Z" fill="white"/>
</svg>
