<svg width="10" height="12" viewBox="0 0 10 12" fill="none" xmlns="http://www.w3.org/2000/svg">
<path fill-rule="evenodd" clip-rule="evenodd" d="M8.02692 11.2753C7.36697 11.2753 6.83023 10.738 6.83023 10.078C6.83023 9.41808 7.36697 8.88134 8.02692 8.88134C8.68686 8.88134 9.2236 9.41808 9.2236 10.078C9.2236 10.738 8.68686 11.2753 8.02692 11.2753ZM1.88933 7.18393C1.22939 7.18393 0.692657 6.64606 0.692657 5.98668C0.692657 5.32672 1.22939 4.78943 1.88933 4.78943C2.54929 4.78943 3.08603 5.32672 3.08603 5.98668C3.08603 6.64606 2.54929 7.18393 1.88933 7.18393ZM8.02692 0.697526C8.68686 0.697526 9.2236 1.23482 9.2236 1.89477C9.2236 2.55472 8.68686 3.09146 8.02692 3.09146C7.36697 3.09146 6.83023 2.55472 6.83023 1.89477C6.83023 1.23482 7.36697 0.697526 8.02692 0.697526ZM8.02692 8.20677C7.50031 8.20677 7.02434 8.42562 6.68339 8.77614L3.60813 6.72821C3.70658 6.50092 3.76116 6.24999 3.76116 5.98668C3.76116 5.72281 3.70658 5.47244 3.60813 5.24459L6.68339 3.19722C7.02434 3.54774 7.50031 3.76603 8.02692 3.76603C9.05876 3.76603 9.89875 2.92661 9.89875 1.89477C9.89875 0.862372 9.05876 0.0229492 8.02692 0.0229492C6.99453 0.0229492 6.15453 0.862372 6.15453 1.89477C6.15453 2.15808 6.20967 2.40845 6.30813 2.6363L3.23286 4.68367C2.89192 4.33259 2.41595 4.1143 1.88933 4.1143C0.856941 4.1143 0.0175171 4.95428 0.0175171 5.98668C0.0175171 7.01908 0.856941 7.8585 1.88933 7.8585C2.41595 7.8585 2.89192 7.64021 3.23286 7.28914L6.30813 9.33706C6.20967 9.56436 6.15453 9.81472 6.15453 10.078C6.15453 11.1104 6.99453 11.9498 8.02692 11.9498C9.05876 11.9498 9.89875 11.1104 9.89875 10.078C9.89875 9.04618 9.05876 8.20677 8.02692 8.20677Z" fill="white"/>
</svg>
