<svg width="44" height="25" viewBox="0 0 44 25" fill="none" xmlns="http://www.w3.org/2000/svg">
<path fill-rule="evenodd" clip-rule="evenodd" d="M30.3448 16.7862C27.9787 16.7862 26.0567 14.8622 26.0567 12.4981C26.0567 10.1319 27.9787 8.20789 30.3448 8.20789C32.711 8.20789 34.635 10.1319 34.635 12.4981C34.635 14.8622 32.711 16.7862 30.3448 16.7862ZM30.3448 5.71714C26.6067 5.71714 23.566 8.75785 23.566 12.498C23.566 16.2361 26.6067 19.2768 30.3448 19.2768C34.085 19.2768 37.1257 16.2361 37.1257 12.498C37.1257 8.75785 34.085 5.71714 30.3448 5.71714ZM31.6856 22.3217H12.3123C6.89709 22.3217 2.48858 17.9132 2.48858 12.498C2.48858 7.08076 6.89709 2.67226 12.3123 2.67226H31.6856C37.1029 2.67226 41.5114 7.08076 41.5114 12.498C41.5114 17.9132 37.1029 22.3217 31.6856 22.3217ZM31.6856 0.181641H12.3123C5.52309 0.181641 0 5.70681 0 12.4981C0 19.2893 5.52309 24.8124 12.3123 24.8124H31.6856C38.4769 24.8124 44 19.2893 44 12.4981C44 5.70681 38.4769 0.181641 31.6856 0.181641Z" fill="white"/>
</svg>
