<svg width="30" height="30" viewBox="0 0 30 30" fill="none" xmlns="http://www.w3.org/2000/svg">
<path fill-rule="evenodd" clip-rule="evenodd" d="M15 0C6.72897 0 0 6.729 0 15.0001C0 19.2909 1.81141 23.1662 4.70902 25.9027C4.76332 25.9607 4.82103 26.0157 4.88413 26.0657C7.55332 28.508 11.1055 30 14.9998 30C18.8941 30 22.4464 28.5078 25.1155 26.0657C25.1786 26.0157 25.2364 25.9606 25.2907 25.9027C28.1886 23.1662 30 19.2909 30 15.0001C30 6.729 23.271 0 15 0ZM15 1.66672C7.64799 1.66672 1.66669 7.64805 1.66669 15.0001C1.66669 18.5434 3.05631 21.7678 5.3187 24.1581C5.66229 22.1813 6.60282 20.361 8.05083 18.9129C9.12123 17.8425 10.3953 17.0502 11.7854 16.5705C10.2966 15.5451 9.31844 13.829 9.31844 11.8885C9.31844 8.75567 11.8672 6.20691 15 6.20691C18.1328 6.20691 20.6816 8.75567 20.6816 11.8885C20.6816 13.829 19.7035 15.5451 18.2146 16.5705C19.6047 17.0502 20.8788 17.8425 21.9492 18.9129C23.3972 20.3609 24.3377 22.1812 24.6813 24.1579C26.9438 21.7677 28.3334 18.5433 28.3334 15.0001C28.3334 7.64805 22.3521 1.66672 15 1.66672ZM23.2815 25.442C23.062 21.0642 19.4314 17.5701 15 17.5701C10.5685 17.5701 6.93786 21.0643 6.71848 25.4423C8.99465 27.2514 11.8732 28.3334 14.9999 28.3334C18.1266 28.3334 21.0053 27.2512 23.2815 25.442ZM15 16.0345C17.2493 16.0345 19.0794 14.2045 19.0794 11.9551C19.0794 9.70571 17.2493 7.87573 15 7.87573C12.7506 7.87573 10.9206 9.70571 10.9206 11.9551C10.9206 14.2045 12.7506 16.0345 15 16.0345Z" fill="white"/>
</svg>
