<svg width="33" height="38" viewBox="0 0 33 38" fill="none" xmlns="http://www.w3.org/2000/svg">
<path d="M16.3571 5.78878C13.5061 5.78878 10.7718 6.92137 8.75575 8.93739C6.73973 10.9534 5.60714 13.6877 5.60714 16.5388V24.2174C5.60714 25.4392 5.12175 26.6111 4.25774 27.4751C3.39374 28.3391 2.22189 28.8245 1 28.8245H31.7143C30.4924 28.8245 29.3206 28.3391 28.4565 27.4751C27.5925 26.6111 27.1071 25.4392 27.1071 24.2174V16.5388C27.1071 13.6877 25.9746 10.9534 23.9585 8.93739C21.9425 6.92137 19.2082 5.78878 16.3571 5.78878ZM16.3571 5.78878V1.18164M19.0139 34.9674C18.7439 35.4328 18.3564 35.8191 17.8901 36.0877C17.4239 36.3563 16.8952 36.4976 16.3571 36.4976C15.8191 36.4976 15.2904 36.3563 14.8242 36.0877C14.3579 35.8191 13.9704 35.4328 13.7004 34.9674" stroke="white" stroke-width="1.5" stroke-linecap="round" stroke-linejoin="round"/>
</svg>
