<svg width="30" height="39" viewBox="0 0 30 39" fill="none" xmlns="http://www.w3.org/2000/svg">
<path d="M0.500015 15.0007L0.500016 15.0006C0.504551 11.1562 2.03374 7.47054 4.75214 4.75213C7.47041 2.03387 11.1558 0.504692 15 0.5C18.8442 0.50469 22.5296 2.03387 25.2479 4.75213C27.9663 7.47054 29.4955 11.1562 29.5 15.0006V15.0007C29.5045 18.1397 28.4792 21.1934 26.5813 23.6936L26.5313 23.7595L26.5302 23.7627L26.5161 23.7812L26.3689 23.9731C26.314 24.0446 26.2576 24.1178 26.2113 24.1775L26.1519 24.2538L26.1319 24.2791L26.1256 24.287L26.1237 24.2894L26.123 24.2902L15 37.4087L3.87911 24.293L3.87691 24.2904C3.87721 24.2908 3.87511 24.2883 3.86962 24.2816L3.84985 24.2569C3.8337 24.2365 3.81335 24.2105 3.78995 24.1804C3.74325 24.1203 3.68666 24.0468 3.63161 23.9749C3.57667 23.9032 3.52375 23.8339 3.48452 23.7824L3.43752 23.7206L3.42453 23.7035L3.42114 23.6991L3.42028 23.6979L3.42008 23.6977L3.42002 23.6976L3.42001 23.6976C1.5212 21.1963 0.495413 18.1411 0.500015 15.0007ZM20.9545 15.0006V15C20.9545 13.8223 20.6053 12.6711 19.951 11.6918C19.2967 10.7126 18.3668 9.9494 17.2787 9.49872C16.1907 9.04803 14.9934 8.93011 13.8383 9.15987C12.6833 9.38963 11.6223 9.95674 10.7895 10.7895C9.95675 11.6223 9.38963 12.6833 9.15988 13.8383C8.93012 14.9934 9.04804 16.1907 9.49872 17.2787C9.94941 18.3668 10.7126 19.2967 11.6918 19.951C12.6711 20.6053 13.8223 20.9545 15 20.9545H15.0006C16.5791 20.9526 18.0924 20.3247 19.2085 19.2085C20.3247 18.0924 20.9526 16.5791 20.9545 15.0006Z" fill="#111111" stroke="white"/>
</svg>
