<svg width="30" height="30" viewBox="0 0 30 30" fill="none" xmlns="http://www.w3.org/2000/svg">
<path fill-rule="evenodd" clip-rule="evenodd" d="M12.3467 19.0078C7.54174 19.0078 3.43799 19.7341 3.43799 22.6441C3.43799 25.5528 7.51549 26.3066 12.3467 26.3066C17.1517 26.3066 21.2555 25.5791 21.2555 22.6703C21.2555 19.7616 17.178 19.0078 12.3467 19.0078Z" stroke="white" stroke-width="1.5" stroke-linecap="round" stroke-linejoin="round"/>
<path fill-rule="evenodd" clip-rule="evenodd" d="M12.3467 14.8575C15.5167 14.8575 18.0567 12.3162 18.0567 9.1475C18.0567 5.9775 15.5167 3.4375 12.3467 3.4375C9.17797 3.4375 6.63672 5.9775 6.63672 9.1475C6.63672 12.3162 9.17797 14.8575 12.3467 14.8575Z" stroke="white" stroke-width="1.5" stroke-linecap="round" stroke-linejoin="round"/>
<path d="M24.0051 10.8364V15.8489" stroke="white" stroke-width="1.5" stroke-linecap="round" stroke-linejoin="round"/>
<path d="M26.5625 13.3428H21.45" stroke="white" stroke-width="1.5" stroke-linecap="round" stroke-linejoin="round"/>
</svg>
